<?xml version="1.0" standalone="no"?>
<!DOCTYPE svg PUBLIC "-//W3C//DTD SVG 20010904//EN"
 "http://www.w3.org/TR/2001/REC-SVG-20010904/DTD/svg10.dtd">
<svg version="1.0" xmlns="http://www.w3.org/2000/svg"
 width="1434.000000pt" height="1076.000000pt" viewBox="0 0 1434.000000 1076.000000"
 preserveAspectRatio="xMidYMid meet">

<g transform="translate(0.000000,1076.000000) scale(0.100000,-0.100000)"
fill="#000000" stroke="none">
<path d="M3734 9373 c-26 -9 1 -40 66 -77 129 -73 297 -242 353 -356 l32 -65
0 -1015 c0 -1132 -1 -1111 71 -1362 124 -435 320 -768 629 -1067 207 -200 275
-247 875 -601 245 -144 560 -331 700 -415 140 -84 345 -205 455 -270 110 -65
230 -140 267 -167 97 -71 189 -175 231 -260 63 -128 67 -160 74 -595 5 -360 5
-394 -11 -418 l-17 -26 -497 6 c-273 3 -535 11 -582 16 -232 28 -460 199 -578
434 -58 116 -63 148 -68 425 -3 140 -7 265 -10 277 -2 13 -14 25 -27 27 -12 3
-356 7 -765 9 -660 4 -745 2 -759 -11 -13 -14 -15 -58 -10 -351 5 -367 15
-458 68 -661 52 -198 147 -417 261 -609 212 -351 581 -694 954 -883 311 -158
607 -227 1071 -248 245 -11 2964 -20 3003 -10 24 6 23 8 -24 36 -160 95 -335
261 -398 378 l-33 61 0 1010 c0 937 -1 1018 -19 1125 -101 624 -418 1151 -913
1519 -128 95 -238 163 -783 486 -1342 795 -1287 761 -1395 870 -117 117 -170
227 -195 405 -15 103 -13 769 1 787 13 15 470 17 859 3 259 -9 341 -24 457
-80 179 -88 344 -281 402 -472 17 -56 21 -107 27 -330 4 -144 10 -270 15 -279
7 -15 84 -17 775 -24 732 -7 768 -6 781 11 16 22 18 383 3 609 -37 533 -268
1031 -664 1430 -386 388 -805 605 -1323 686 -128 20 -194 22 -923 29 -1030 11
-2422 18 -2436 13z"/>
</g>
</svg>
